<?xml version="1.0" encoding="iso-8859-1"?>
<!-- Generator: Adobe Illustrator 16.0.0, SVG Export Plug-In . SVG Version: 6.00 Build 0)  -->
<!DOCTYPE svg PUBLIC "-//W3C//DTD SVG 1.1//EN" "http://www.w3.org/Graphics/SVG/1.1/DTD/svg11.dtd">
<svg version="1.1" id="Capa_1" xmlns="http://www.w3.org/2000/svg" xmlns:xlink="http://www.w3.org/1999/xlink" x="0px" y="0px"
	 width="559.653px" height="559.653px" viewBox="0 0 559.653 559.653" style="enable-background:new 0 0 559.653 559.653;"
	 xml:space="preserve">
<g>
	<g>
		<g>
			<path d="M153.704,364.272c-29.4,0-53.317,23.91-53.317,53.302c0,29.399,23.919,53.319,53.317,53.319
				c29.393,0,53.301-23.92,53.301-53.319C207.007,388.182,183.096,364.272,153.704,364.272z"/>
			<path d="M499.843,12.801h-26.596c-11.695,0-21.177,19.798-21.177,44.235s9.48,44.244,21.177,44.244h38.005v53.162
				c0,5.759,4.398,10.335,9.992,10.965v176.317c0,81.174-66.032,147.207-147.206,147.207h-66.661v-71.246h68.578
				c40.818,0,74.034-33.217,74.034-74.033v-58.614c5.583-0.648,9.974-5.204,9.974-10.965v-53.17v-25.945v-2.724
				c0-33.029-26.779-59.811-59.811-59.811h-26.597c-11.694,0-21.178,19.807-21.178,44.244s9.482,44.235,21.178,44.235h38.012v53.17
				c0,5.761,4.391,10.317,9.974,10.965v58.614c0,25.142-20.444,45.589-45.588,45.589h-68.578V88.3
				c0-20.251-16.42-36.671-36.671-36.671H36.669C16.418,51.629,0,68.046,0,88.3v421.884c0,20.25,16.418,36.668,36.669,36.668
				h234.037c17.788,0,32.595-12.666,35.946-29.473h67.386c96.858,0,175.651-78.793,175.651-175.652V165.409
				c5.575-0.649,9.964-5.214,9.964-10.965v-53.163V75.316v-2.703C559.653,39.583,532.872,12.801,499.843,12.801z M153.704,508.823
				c-50.318,0-91.247-40.929-91.247-91.248c0-50.3,40.929-91.229,91.247-91.229c50.302,0,91.231,40.928,91.231,91.229
				C244.935,467.893,204.006,508.823,153.704,508.823z M56.977,287.147c-9.9,0-17.93-8.028-17.93-17.928V114.43
				c0-9.9,8.03-17.928,17.93-17.928h193.431c9.896,0,17.928,8.03,17.928,17.928v154.789c0,9.9-8.03,17.928-17.928,17.928H56.977
				L56.977,287.147z"/>
		</g>
	</g>
</g>
<g>
</g>
<g>
</g>
<g>
</g>
<g>
</g>
<g>
</g>
<g>
</g>
<g>
</g>
<g>
</g>
<g>
</g>
<g>
</g>
<g>
</g>
<g>
</g>
<g>
</g>
<g>
</g>
<g>
</g>
</svg>
